<svg height='100px' width='100px'  fill="#6772e5" xmlns="http://www.w3.org/2000/svg" xmlns:xlink="http://www.w3.org/1999/xlink" version="1.1" x="0px" y="0px" viewBox="0 0 100 100" enable-background="new 0 0 100 100" xml:space="preserve"><path fill="#6772e5" d="M93.352,49.991c0.851-1.633,1.532-3.367,2.021-5.188c1.756-6.553,0.855-13.397-2.537-19.272  C88.45,17.933,80.663,13.24,71.922,12.866C67.507,5.345,59.339,0.28,50.006,0.28c-9.031,0-17.366,4.812-21.919,12.584  c-8.636,0.377-16.579,5.15-20.919,12.667c-4.388,7.6-4.56,16.692-0.51,24.45c-4.305,7.583-4.606,17.188,0.06,25.27  c4.499,7.792,12.87,12.646,21.871,12.697c4.515,7.069,12.425,11.771,21.417,11.771c8.771,0,16.729-4.395,21.424-11.771  c8.994-0.06,17.358-4.909,21.854-12.697C97.796,67.438,97.8,57.818,93.352,49.991z M90.969,26.608  c3.104,5.377,3.93,11.641,2.323,17.638c-0.533,1.991-1.335,3.859-2.336,5.6c-0.251,0.435-0.515,0.861-0.79,1.276  c-0.154,0.231-0.312,0.46-0.475,0.685c-0.28,0.392-0.573,0.771-0.877,1.144c-0.188,0.229-0.379,0.454-0.574,0.676  c-0.309,0.349-0.631,0.687-0.963,1.017c-0.215,0.215-0.432,0.428-0.654,0.635c-0.34,0.312-0.691,0.613-1.053,0.908  c-0.973,0.795-2,1.535-3.108,2.176l-7.06,4.076V54.65l3.688-2.127c3.71-2.144,6.256-5.523,7.455-9.317  c0.021-0.058,0.045-0.112,0.057-0.172c1.283-4.222,0.903-8.939-1.472-13.053c-1.474-2.555-3.603-4.667-6.153-6.109  c-1.194-0.675-2.473-1.188-3.802-1.55c-0.338-2.544-1.053-4.97-2.089-7.22C80.572,15.817,87.168,20.021,90.969,26.608z   M83.715,69.725c-1.285,2.226-3.135,4.062-5.348,5.312c-0.963,0.544-1.987,0.96-3.045,1.262c0.05-0.652,0.08-1.312,0.08-1.976  v-9.399l8.136-4.695c0.577-0.334,1.134-0.692,1.679-1.065C86.089,62.736,85.566,66.516,83.715,69.725z M66.409,76.025  c0.058-0.564,0.098-1.133,0.098-1.703v-4.264l6.742-3.893v8.154c0,0.822-0.056,1.633-0.14,2.433  C70.863,77.032,68.555,76.788,66.409,76.025z M50.002,79.588l8.589,4.959c0.306,0.178,0.62,0.335,0.933,0.498  c-2.614,2.316-6.008,3.624-9.519,3.624c-3.646,0-6.969-1.379-9.503-3.628c0.306-0.16,0.612-0.322,0.909-0.494L50.002,79.588z   M48.928,77.721l-8.595,4.961c-0.458,0.266-0.931,0.51-1.408,0.743c-1.424-1.729-2.446-3.801-2.937-6.067  c0.334-0.164,0.662-0.334,0.975-0.515l11.964-6.907v7.785H48.928z M24.606,74.322c0,0.671,0.034,1.334,0.085,1.99  c-1.066-0.311-2.092-0.731-3.058-1.276c-2.214-1.251-4.063-3.089-5.346-5.312c-1.862-3.224-2.384-6.963-1.504-10.567  c0.548,0.377,1.107,0.737,1.68,1.069l8.141,4.699L24.606,74.322z M15.124,41.101c-0.708-3.442-0.157-6.978,1.614-10.045  c1.284-2.223,3.134-4.059,5.348-5.311c0.811-0.458,1.666-0.831,2.547-1.117c-0.014,0.351-0.027,0.701-0.027,1.052v9.915  l-8.592,4.961C15.711,40.73,15.417,40.915,15.124,41.101z M33.542,24.587c-0.024,0.364-0.039,0.729-0.039,1.093v4.778l-6.743,3.893  V25.68c0-0.525,0.024-1.05,0.059-1.571C29.055,23.75,31.372,23.906,33.542,24.587z M36.338,25.805l2.612,1.509l-3.292,1.9V25.68  c0-0.076,0.012-0.152,0.014-0.229C35.896,25.564,36.12,25.679,36.338,25.805z M41.104,28.557l6.743,3.894l-12.414,7.167  c-0.669-2.299-2.792-3.986-5.304-3.986c-0.641,0-1.253,0.115-1.826,0.316L41.104,28.557z M50.001,20.934l-8.138-4.699  c-0.575-0.332-1.166-0.633-1.762-0.918c2.66-2.545,6.194-3.984,9.905-3.984c3.836,0,7.317,1.522,9.895,3.983  c-0.601,0.287-1.19,0.591-1.76,0.919L50.001,20.934z M51.079,22.798l8.137-4.697c0.701-0.405,1.438-0.765,2.188-1.099  c1.357,1.778,2.309,3.878,2.715,6.169c-0.525,0.235-1.041,0.485-1.529,0.769l-4.23,2.442l0,0l-0.055,0.032l-7.222,4.169  L51.079,22.798z M75.377,24.63c0.881,0.293,1.732,0.66,2.54,1.116c2.217,1.252,4.065,3.089,5.349,5.31  c1.821,3.157,2.289,6.724,1.608,10.042c-0.293-0.186-0.587-0.369-0.886-0.542l-8.586-4.957V25.68  C75.402,25.327,75.391,24.979,75.377,24.63z M75.402,48.359l3.062,1.768c0.062,0.036,0.119,0.083,0.181,0.12  c-0.209,0.136-0.41,0.28-0.631,0.407l-2.609,1.508v-3.803H75.402z M80.479,48.85c-0.309-0.207-0.621-0.405-0.939-0.589l-4.137-2.389  v-7.786l7.51,4.335c0.461,0.266,0.91,0.554,1.352,0.851C83.479,45.371,82.195,47.291,80.479,48.85z M73.249,62.439l-6.742-3.894  V41.975l6.742-3.893V62.439z M50.006,66.825l-14.348-8.278l-0.002-16.571l14.345-8.281l14.351,8.285v16.562L50.006,66.825z   M65.426,40.111l-13.244-7.646l6.719-3.906l13.269,7.66L65.426,40.111z M61.053,27.313l2.614-1.509  c0.218-0.126,0.446-0.239,0.674-0.354c0.001,0.077,0.013,0.151,0.013,0.229v3.539L61.053,27.313z M24.604,52.165l-2.615-1.511  c-0.218-0.127-0.429-0.267-0.642-0.404c0.065-0.039,0.125-0.085,0.191-0.123l3.065-1.77L24.604,52.165z M19.48,51.579  c0.465,0.337,0.94,0.657,1.432,0.94l3.691,2.133l0.001,7.785l-7.063-4.078c-0.706-0.407-1.386-0.866-2.05-1.35  C16.373,54.896,17.732,53.044,19.48,51.579z M26.757,41.159c0-1.86,1.513-3.373,3.372-3.373c1.86,0,3.373,1.513,3.373,3.375  l0.002,17.381l-6.744,3.894L26.757,41.159z M34.577,60.41l13.274,7.658l-6.748,3.896l-13.27-7.662L34.577,60.41z M38.951,73.208  l-3.063,1.769c-0.06,0.034-0.13,0.062-0.191,0.096c-0.013-0.249-0.038-0.496-0.038-0.749v-3.015L38.951,73.208z M65.426,60.41  l6.742,3.895L58.9,71.963l-6.739-3.895L65.426,60.41z M64.354,71.303v3.021c0,0.255-0.018,0.51-0.029,0.765  c-0.068-0.038-0.141-0.07-0.207-0.109l-3.062-1.771L64.354,71.303z M50.006,2.436c12.032,0,21.957,9.19,23.127,20.92  c0.001,0.005,0,0.011,0.001,0.017c0.075,0.759,0.115,1.528,0.115,2.308v8.676l-6.742-3.893V25.68c0-4.107-1.518-7.86-4.009-10.751  c-0.006-0.006-0.012-0.012-0.018-0.018c-3.026-3.504-7.491-5.733-12.476-5.733c-4.576,0-8.905,1.914-12.025,5.246  c-2.367-0.878-4.85-1.406-7.37-1.549C34.894,6.396,42.166,2.436,50.006,2.436z M7.998,47.847c-3.12-6.839-2.768-14.652,1.036-21.238  c4.14-7.172,11.862-11.627,20.153-11.627c4.056,0,8.066,1.079,11.6,3.119l8.138,4.698l0.003,7.788L37.415,23.94  c-0.701-0.405-1.432-0.747-2.181-1.038c-0.03-0.018-0.067-0.022-0.099-0.036c-2.989-1.142-6.282-1.386-9.396-0.745  c-0.123,0.009-0.238,0.03-0.346,0.077c-1.523,0.347-2.999,0.9-4.366,1.673c-2.55,1.44-4.678,3.553-6.155,6.108  c-2.191,3.795-2.782,8.215-1.667,12.454c-0.059,0.045-0.113,0.097-0.172,0.143c-0.412,0.322-0.815,0.653-1.202,0.997  c-0.121,0.107-0.235,0.221-0.354,0.33c-0.276,0.256-0.547,0.516-0.81,0.781c-0.161,0.162-0.32,0.325-0.476,0.491  c-0.28,0.299-0.552,0.604-0.816,0.915c-0.187,0.22-0.367,0.444-0.547,0.671c-0.193,0.243-0.382,0.489-0.565,0.738  C8.177,47.617,8.082,47.728,7.998,47.847z M8.583,74.175c-4.4-7.623-3.979-16.728,0.311-23.76c0.328-0.537,0.68-1.055,1.046-1.559  c0.091-0.125,0.179-0.252,0.273-0.376c0.385-0.508,0.793-0.996,1.218-1.469c0.093-0.104,0.184-0.207,0.278-0.309  c0.458-0.491,0.938-0.963,1.439-1.414c0.057-0.051,0.112-0.104,0.169-0.154c0.55-0.484,1.124-0.945,1.723-1.38  c0.653-0.475,1.336-0.921,2.051-1.334l9.444-5.452c-1.181,1.015-1.933,2.516-1.933,4.191v4.71l-4.141,2.391  c-3.441,1.986-5.987,5.08-7.294,8.789c-0.011,0.033-0.024,0.065-0.032,0.1c-0.129,0.375-0.26,0.746-0.363,1.133  c-1.14,4.258-0.554,8.705,1.65,12.521c1.474,2.556,3.602,4.669,6.152,6.108c1.375,0.775,2.855,1.337,4.4,1.697  c0.432,2.526,1.237,4.928,2.359,7.144C19.584,85.281,12.489,80.938,8.583,74.175z M50.006,97.564  c-12.817,0-23.245-10.426-23.245-23.242L26.76,66.17l6.744,3.895v4.259c0,0.812,0.079,1.604,0.192,2.384  c-0.002,0.087,0.021,0.173,0.04,0.261c0.518,3.196,1.952,6.081,4.031,8.386c0.058,0.084,0.125,0.158,0.203,0.224  c3.014,3.221,7.288,5.248,12.036,5.248c4.34,0,8.51-1.749,11.59-4.798c2.338,0.968,4.809,1.568,7.323,1.805  C64.557,93.955,57.613,97.564,50.006,97.564z M91.418,74.175c-4.139,7.169-11.859,11.624-20.15,11.624  c-4.056,0-8.065-1.076-11.6-3.117l-8.584-4.957v-7.789l11.953,6.907c3.314,1.912,7.242,2.55,10.968,1.947  c0.029,0.002,0.06,0.006,0.088,0.006c0.146,0,0.283-0.035,0.412-0.089c1.72-0.332,3.388-0.93,4.921-1.796  c2.549-1.438,4.676-3.552,6.154-6.108c2.285-3.961,2.816-8.67,1.493-13.037c0.022-0.019,0.042-0.039,0.063-0.058  c0.934-0.778,1.807-1.618,2.612-2.515c0.026-0.031,0.056-0.062,0.083-0.094c0.822-0.925,1.572-1.906,2.25-2.939  C95.55,59.109,95.337,67.389,91.418,74.175z"></path></svg>